<svg width="226" height="30" viewBox="0 0 226 30" fill="none" xmlns="http://www.w3.org/2000/svg">
<rect width="60" height="30" rx="15" fill="url(#paint0_linear_56_20)"/>
<circle cx="45.25" cy="15" r="11.25" fill="white"/>
<path d="M42.2161 18.108C41.7181 18.108 41.2561 18.027 40.8301 17.865C40.4101 17.703 40.0441 17.475 39.7321 17.181C39.4261 16.887 39.1861 16.542 39.0121 16.146C38.8441 15.75 38.7601 15.318 38.7601 14.85C38.7601 14.382 38.8441 13.95 39.0121 13.554C39.1861 13.158 39.4291 12.813 39.7411 12.519C40.0531 12.225 40.4191 11.997 40.8391 11.835C41.2591 11.673 41.7151 11.592 42.2071 11.592C42.7051 11.592 43.1611 11.673 43.5751 11.835C43.9951 11.997 44.3581 12.225 44.6641 12.519C44.9761 12.813 45.2191 13.158 45.3931 13.554C45.5671 13.944 45.6541 14.376 45.6541 14.85C45.6541 15.318 45.5671 15.753 45.3931 16.155C45.2191 16.551 44.9761 16.896 44.6641 17.19C44.3581 17.478 43.9951 17.703 43.5751 17.865C43.1611 18.027 42.7081 18.108 42.2161 18.108ZM42.2071 16.866C42.4891 16.866 42.7471 16.818 42.9811 16.722C43.2211 16.626 43.4311 16.488 43.6111 16.308C43.7911 16.128 43.9291 15.915 44.0251 15.669C44.1271 15.423 44.1781 15.15 44.1781 14.85C44.1781 14.55 44.1271 14.277 44.0251 14.031C43.9291 13.785 43.7911 13.572 43.6111 13.392C43.4371 13.212 43.2301 13.074 42.9901 12.978C42.7501 12.882 42.4891 12.834 42.2071 12.834C41.9251 12.834 41.6641 12.882 41.4241 12.978C41.1901 13.074 40.9831 13.212 40.8031 13.392C40.6231 13.572 40.4821 13.785 40.3801 14.031C40.2841 14.277 40.2361 14.55 40.2361 14.85C40.2361 15.144 40.2841 15.417 40.3801 15.669C40.4821 15.915 40.6201 16.128 40.7941 16.308C40.9741 16.488 41.1841 16.626 41.4241 16.722C41.6641 16.818 41.9251 16.866 42.2071 16.866Z" fill="#3875F6"/>
<path d="M48.0549 16.56L47.9739 14.877L50.9889 11.7H52.6089L49.8909 14.625L49.0809 15.489L48.0549 16.56ZM46.7499 18V11.7H48.1989V18H46.7499ZM51.0609 18L48.8199 15.255L49.7739 14.22L52.7619 18H51.0609Z" fill="#3875F6"/>
<path d="M70.0071 23V11.626H65.4971V7.59999H79.7091V11.626H75.1991V23H70.0071Z" fill="#3875F6"/>
<path d="M81.0577 23V7.59999H88.4717C89.909 7.59999 91.1483 7.83465 92.1897 8.30399C93.2457 8.77332 94.0597 9.44799 94.6317 10.328C95.2037 11.1933 95.4897 12.22 95.4897 13.408C95.4897 14.596 95.2037 15.6227 94.6317 16.488C94.0597 17.3387 93.2457 17.9913 92.1897 18.446C91.1483 18.9007 89.909 19.128 88.4717 19.128H83.9397L86.2497 16.994V23H81.0577ZM90.2757 23L86.4917 17.39H91.9917L95.8197 23H90.2757ZM86.2497 17.566L83.9397 15.212H88.1417C88.8603 15.212 89.3883 15.0507 89.7257 14.728C90.0777 14.4053 90.2537 13.9653 90.2537 13.408C90.2537 12.8507 90.0777 12.4107 89.7257 12.088C89.3883 11.7653 88.8603 11.604 88.1417 11.604H83.9397L86.2497 9.24999V17.566Z" fill="#3875F6"/>
<path d="M102.202 13.32H109.066V17.06H102.202V13.32ZM102.554 19.084H110.254V23H97.4502V7.59999H109.968V11.516H102.554V19.084Z" fill="#3875F6"/>
<path d="M110.581 23L117.313 7.59999H122.417L129.149 23H123.781L118.809 10.064H120.833L115.861 23H110.581ZM114.585 20.316L115.905 16.576H122.989L124.309 20.316H114.585Z" fill="#3875F6"/>
<path d="M132.548 23V11.626H128.038V7.59999H142.25V11.626H137.74V23H132.548Z" fill="#3875F6"/>
<path d="M143.599 23V7.59999H147.867L154.027 17.654H151.783L157.767 7.59999H162.035L162.079 23H157.349L157.305 14.728H158.053L153.961 21.614H151.673L147.405 14.728H148.329V23H143.599Z" fill="#3875F6"/>
<path d="M169.341 13.32H176.205V17.06H169.341V13.32ZM169.693 19.084H177.393V23H164.589V7.59999H177.107V11.516H169.693V19.084Z" fill="#3875F6"/>
<path d="M179.392 23V7.59999H183.66L191.492 16.972H189.512V7.59999H194.572V23H190.304L182.472 13.628H184.452V23H179.392Z" fill="#3875F6"/>
<path d="M200.417 23V11.626H195.907V7.59999H210.119V11.626H205.609V23H200.417Z" fill="#3875F6"/>
<path d="M217.21 23.352C215.919 23.352 214.672 23.2053 213.47 22.912C212.267 22.6187 211.277 22.2373 210.5 21.768L212.172 17.984C212.905 18.4093 213.719 18.754 214.614 19.018C215.523 19.2673 216.403 19.392 217.254 19.392C217.752 19.392 218.141 19.3627 218.42 19.304C218.713 19.2307 218.926 19.1353 219.058 19.018C219.19 18.886 219.256 18.732 219.256 18.556C219.256 18.2773 219.102 18.0573 218.794 17.896C218.486 17.7347 218.075 17.6027 217.562 17.5C217.063 17.3827 216.513 17.2653 215.912 17.148C215.31 17.016 214.702 16.8473 214.086 16.642C213.484 16.4367 212.927 16.1653 212.414 15.828C211.915 15.4907 211.512 15.0507 211.204 14.508C210.896 13.9507 210.742 13.2613 210.742 12.44C210.742 11.4867 211.006 10.6213 211.534 9.84399C212.076 9.05199 212.876 8.42132 213.932 7.95199C215.002 7.48265 216.33 7.24799 217.914 7.24799C218.955 7.24799 219.982 7.35799 220.994 7.57799C222.006 7.79799 222.915 8.13532 223.722 8.58999L222.16 12.352C221.397 11.9707 220.656 11.6847 219.938 11.494C219.234 11.3033 218.544 11.208 217.87 11.208C217.371 11.208 216.975 11.252 216.682 11.34C216.388 11.428 216.176 11.5453 216.044 11.692C215.926 11.8387 215.868 12 215.868 12.176C215.868 12.44 216.022 12.6527 216.33 12.814C216.638 12.9607 217.041 13.0853 217.54 13.188C218.053 13.2907 218.61 13.4007 219.212 13.518C219.828 13.6353 220.436 13.7967 221.038 14.002C221.639 14.2073 222.189 14.4787 222.688 14.816C223.201 15.1533 223.612 15.5933 223.92 16.136C224.228 16.6787 224.382 17.3533 224.382 18.16C224.382 19.0987 224.11 19.964 223.568 20.756C223.04 21.5333 222.248 22.164 221.192 22.648C220.136 23.1173 218.808 23.352 217.21 23.352Z" fill="#3875F6"/>
<defs>
<linearGradient id="paint0_linear_56_20" x1="-1.35665e-07" y1="15" x2="55.8599" y2="-0.207444" gradientUnits="userSpaceOnUse">
<stop stop-color="#FF00B8"/>
<stop offset="0.333333" stop-color="#B009FE"/>
<stop offset="0.666667" stop-color="#3875F6"/>
<stop offset="1" stop-color="#2458F6"/>
</linearGradient>
</defs>
</svg>
